<svg width="984" height="578" viewBox="0 0 984 578" fill="none" xmlns="http://www.w3.org/2000/svg">
<path d="M982.142 252.308V558.517H42.734V280.774C43.593 280.873 44.7073 280.998 46.0581 281.145C49.5467 281.525 54.6123 282.051 60.927 282.635C73.5555 283.802 91.1846 285.204 111.19 286.138C151.158 288.005 200.772 288.016 238.938 280.509C274.46 273.521 298.827 256.607 322.607 240.1C323.43 239.529 324.253 238.958 325.076 238.388C349.667 221.339 374.05 205.084 410.268 200.257C458.228 193.866 493.626 209.6 529.506 227.725C532.369 229.171 535.235 230.632 538.11 232.099C571.243 248.995 605.691 266.562 651.158 268.65C674.563 269.724 701.723 263.012 729.079 255.828C730.978 255.329 732.877 254.828 734.777 254.327C760.388 247.574 786.025 240.813 809.272 239.663C857.659 237.269 901.254 240.512 932.754 244.354C948.502 246.276 961.222 248.346 969.999 249.935C974.388 250.729 977.79 251.403 980.093 251.878C980.919 252.048 981.604 252.193 982.142 252.308Z" fill="url(#paint0_linear_481_946)" stroke="#E79532" stroke-width="3.71601"/>
<line x1="42.734" y1="-0.000121989" x2="42.734" y2="556.659" stroke="#016FB9" stroke-width="3.71601"/>
<line x1="982.142" y1="3.71594" x2="982.142" y2="560.375" stroke="#016FB9" stroke-width="3.71601"/>
<line x1="980.284" y1="558.516" x2="40.8763" y2="558.516" stroke="#016FB9" stroke-width="3.71601"/>
<path d="M22.5356 548.067V552.901C22.5356 555.499 22.3033 557.691 21.8388 559.477C21.3743 561.262 20.7066 562.699 19.8357 563.788C18.9647 564.876 17.9123 565.668 16.6785 566.161C15.4592 566.64 14.0802 566.88 12.5415 566.88C11.3222 566.88 10.1973 566.727 9.16665 566.422C8.13603 566.117 7.20703 565.631 6.37964 564.963C5.56676 564.281 4.87001 563.396 4.28938 562.307C3.70875 561.218 3.26603 559.898 2.9612 558.344C2.65637 556.791 2.50395 554.977 2.50395 552.901V548.067C2.50395 545.469 2.7362 543.292 3.20071 541.535C3.67972 539.779 4.3547 538.371 5.22564 537.311C6.09658 536.237 7.14171 535.468 8.36103 535.003C9.59486 534.539 10.9738 534.306 12.498 534.306C13.7318 534.306 14.864 534.459 15.8947 534.764C16.9398 535.054 17.8688 535.526 18.6817 536.179C19.4945 536.818 20.184 537.674 20.7502 538.748C21.3308 539.808 21.7735 541.107 22.0783 542.646C22.3832 544.184 22.5356 545.992 22.5356 548.067ZM18.4857 553.554V547.392C18.4857 545.97 18.3986 544.721 18.2244 543.647C18.0648 542.559 17.8252 541.63 17.5059 540.86C17.1866 540.091 16.7801 539.467 16.2866 538.988C15.8076 538.509 15.2487 538.16 14.61 537.943C13.9859 537.71 13.2818 537.594 12.498 537.594C11.54 537.594 10.6908 537.776 9.95049 538.139C9.21019 538.487 8.58602 539.046 8.07797 539.815C7.58444 540.584 7.20703 541.593 6.94575 542.842C6.68447 544.09 6.55383 545.607 6.55383 547.392V553.554C6.55383 554.977 6.63366 556.232 6.79334 557.321C6.96752 558.41 7.22155 559.353 7.55541 560.152C7.88927 560.935 8.29571 561.581 8.77472 562.089C9.25374 562.597 9.80534 562.975 10.4295 563.222C11.0682 563.454 11.7722 563.57 12.5415 563.57C13.5286 563.57 14.3923 563.381 15.1326 563.004C15.8729 562.626 16.4898 562.039 16.9833 561.24C17.4914 560.427 17.8688 559.389 18.1156 558.127C18.3623 556.849 18.4857 555.325 18.4857 553.554Z" fill="#016FB9"/>
<circle cx="152.728" cy="287.991" r="5.57402" fill="#E79532"/>
<circle cx="258.262" cy="275.357" r="5.57402" fill="#E79532"/>
<circle cx="341.501" cy="227.791" r="5.57402" fill="#E79532"/>
<circle cx="429.942" cy="198.807" r="5.57402" fill="#E79532"/>
<circle cx="522.1" cy="224.076" r="5.57402" fill="#E79532"/>
<circle cx="615" cy="264.208" r="5.57402" fill="#E79532"/>
<circle cx="713.846" cy="259.749" r="5.57402" fill="#E79532"/>
<circle cx="801.543" cy="239.683" r="5.57402" fill="#E79532"/>
<circle cx="897.417" cy="241.169" r="5.57402" fill="#E79532"/>
<defs>
<linearGradient id="paint0_linear_481_946" x1="512.438" y1="91.0423" x2="512.438" y2="566.692" gradientUnits="userSpaceOnUse">
<stop stop-color="#E79532"/>
<stop offset="1" stop-color="#E79532" stop-opacity="0"/>
</linearGradient>
</defs>
</svg>
