<svg width="210" height="40" viewBox="0 0 210 40" fill="none" xmlns="http://www.w3.org/2000/svg">
<g clip-path="url(#clip0_477_600)">
<path d="M36.3511 4.89923C32.0657 1.26642 25.6494 1.85314 21.6785 5.93595L20.1302 7.5461L18.5804 5.93595C15.3801 2.64454 8.90874 0.680479 3.91249 4.89923C-1.03107 9.07813 -1.28269 16.6016 3.13011 21.1328L18.3217 36.7344C18.8163 37.2422 19.4847 37.5 20.1216 37.5C20.7703 37.5 21.4056 37.2461 21.8971 36.7382L37.1201 21.1288C41.5565 16.6016 41.2892 9.07813 36.3511 4.89923ZM35.3289 19.3906L20.1609 35.0078L4.9347 19.3906C1.91761 16.3047 1.28856 10.4063 5.5441 6.80392C9.85232 3.14142 14.924 5.79845 16.7719 7.70235L20.1334 11.15L23.4949 7.70235C25.3136 5.82735 30.4247 3.1711 34.7235 6.80392C38.9617 10.3984 38.3405 16.2969 35.3289 19.3906Z" fill="white"/>
<g clip-path="url(#clip1_477_600)">
<path d="M18.4478 22.4235L17.1639 23.697C16.0025 24.8476 14.1122 24.8476 12.9529 23.697C11.7923 22.5458 11.7923 20.6715 12.9529 19.5221L16.6171 15.8893C17.7785 14.7387 19.6687 14.7387 20.8281 15.8893C21.8704 16.9232 21.9895 18.5821 21.1054 19.7236C20.9533 19.9241 20.994 20.2089 21.1962 20.3593C21.398 20.5101 21.6858 20.4702 21.8375 20.2693C22.9943 18.7443 22.8391 16.574 21.4759 15.2231C19.9576 13.7177 17.4882 13.7186 15.9681 15.2231L12.3036 18.8787C10.7855 20.384 10.7855 22.8322 12.3036 24.3393C13.0628 25.0919 14.063 25.4651 15.0604 25.4651C16.0577 25.4651 17.0519 25.0914 17.8111 24.3393L19.095 23.0658C19.274 22.8883 19.274 22.6009 19.095 22.4235C18.9172 22.2476 18.6252 22.2476 18.4478 22.4235ZM28.3469 12.0663C26.8285 10.561 24.3592 10.5618 22.8391 12.0663L21.5552 13.3398C21.3762 13.5172 21.3762 13.8047 21.5552 13.9821C21.7341 14.1594 22.0241 14.1594 22.203 13.9821L23.4869 12.7086C24.6483 11.558 26.5385 11.558 27.6979 12.7086C28.8585 13.8597 28.8585 15.734 27.6979 16.8835L24.0337 20.5163C22.8723 21.6669 20.9821 21.6669 19.8227 20.5163C18.7798 19.4832 18.6625 17.8257 19.547 16.6593C19.6992 16.4588 19.6585 16.1739 19.4562 16.0235C19.2522 15.8731 18.9659 15.9128 18.8142 16.1143C17.6577 17.6384 17.8122 19.8096 19.1749 21.1605C19.9341 21.9132 20.9314 22.2896 21.9285 22.2896C22.9256 22.2896 23.9229 21.9129 24.6821 21.1605L28.3463 17.5277C29.867 16.0207 29.867 13.5719 28.3469 12.0663Z" fill="white"/>
</g>
</g>
<path d="M60.3981 32H55.2543L55.2871 28.4616H60.3981C61.7851 28.4616 62.9482 28.1558 63.8874 27.5442C64.8266 26.9217 65.5365 26.0317 66.017 24.8741C66.4975 23.7055 66.7378 22.3076 66.7378 20.6804V19.4518C66.7378 18.1958 66.6013 17.0874 66.3283 16.1263C66.0552 15.1652 65.6512 14.3571 65.116 13.7018C64.5918 13.0466 63.942 12.5497 63.1666 12.2111C62.3912 11.8726 61.5012 11.7033 60.4964 11.7033H55.156V8.14848H60.4964C62.0909 8.14848 63.5434 8.41604 64.8539 8.95118C66.1754 9.48631 67.3166 10.2562 68.2777 11.261C69.2496 12.2548 69.9923 13.4452 70.5056 14.8322C71.0298 16.2191 71.2919 17.7699 71.2919 19.4845V20.6804C71.2919 22.3841 71.0298 23.9348 70.5056 25.3327C69.9923 26.7197 69.2496 27.9101 68.2777 28.9039C67.3166 29.8977 66.1699 30.6622 64.8375 31.1973C63.5052 31.7325 62.0254 32 60.3981 32ZM57.7771 8.14848V32H53.2722V8.14848H57.7771ZM79.3844 14.2752V32H75.0432V14.2752H79.3844ZM74.7484 9.6392C74.7484 8.99486 74.9668 8.45973 75.4036 8.03381C75.8514 7.60789 76.4521 7.39493 77.2056 7.39493C77.9592 7.39493 78.5544 7.60789 78.9912 8.03381C79.439 8.45973 79.6628 8.99486 79.6628 9.6392C79.6628 10.2726 79.439 10.8023 78.9912 11.2282C78.5544 11.6541 77.9592 11.8671 77.2056 11.8671C76.4521 11.8671 75.8514 11.6541 75.4036 11.2282C74.9668 10.8023 74.7484 10.2726 74.7484 9.6392ZM87.8372 17.8955V32H83.5125V14.2752H87.6079L87.8372 17.8955ZM93.2268 14.1605L93.1613 18.1904C92.921 18.1467 92.648 18.1139 92.3422 18.0921C92.0473 18.0702 91.7688 18.0593 91.5067 18.0593C90.8405 18.0593 90.2563 18.1522 89.7539 18.3378C89.2515 18.5125 88.8311 18.7692 88.4925 19.1077C88.1649 19.4463 87.9137 19.8613 87.739 20.3527C87.5642 20.8333 87.4659 21.3793 87.4441 21.9909L86.5103 21.8762C86.5103 20.7514 86.625 19.7084 86.8544 18.7473C87.0837 17.7863 87.4168 16.9454 87.8536 16.2246C88.2905 15.5038 88.8365 14.9468 89.4918 14.5537C90.158 14.1496 90.9224 13.9476 91.7852 13.9476C92.0255 13.9476 92.2821 13.9694 92.5551 14.0131C92.8391 14.0458 93.063 14.095 93.2268 14.1605ZM104.809 28.2323V20.0579C104.809 19.4572 104.705 18.9385 104.497 18.5016C104.29 18.0648 103.973 17.7262 103.547 17.486C103.121 17.2457 102.581 17.1256 101.925 17.1256C101.347 17.1256 100.839 17.2239 100.402 17.4204C99.976 17.617 99.6483 17.8955 99.419 18.2559C99.1897 18.6054 99.075 19.0095 99.075 19.4681H94.7339C94.7339 18.7364 94.9086 18.0429 95.2581 17.3877C95.6076 16.7215 96.1045 16.1318 96.7488 15.6185C97.4041 15.0943 98.1849 14.6847 99.0914 14.3899C100.009 14.095 101.035 13.9476 102.171 13.9476C103.514 13.9476 104.71 14.1769 105.759 14.6356C106.818 15.0833 107.648 15.7604 108.249 16.6669C108.86 17.5733 109.166 18.7146 109.166 20.0906V27.8227C109.166 28.7073 109.221 29.4663 109.33 30.0998C109.45 30.7223 109.625 31.2629 109.854 31.7215V32H105.447C105.24 31.5523 105.082 30.9844 104.972 30.2963C104.863 29.5974 104.809 28.9094 104.809 28.2323ZM105.415 21.2046L105.447 23.7765H102.712C102.035 23.7765 101.439 23.8475 100.926 23.9894C100.413 24.1205 99.9924 24.3171 99.6647 24.5792C99.3371 24.8304 99.0914 25.1362 98.9276 25.4966C98.7637 25.846 98.6818 26.2446 98.6818 26.6924C98.6818 27.1292 98.7801 27.5224 98.9767 27.8719C99.1842 28.2214 99.4791 28.4998 99.8613 28.7073C100.254 28.9039 100.713 29.0022 101.237 29.0022C102.002 29.0022 102.668 28.8493 103.236 28.5435C103.804 28.2268 104.246 27.8446 104.563 27.3968C104.88 26.949 105.049 26.5231 105.071 26.1191L106.316 27.9865C106.163 28.4343 105.933 28.9094 105.628 29.4117C105.322 29.9141 104.929 30.3837 104.448 30.8206C103.968 31.2574 103.389 31.6178 102.712 31.9017C102.035 32.1857 101.248 32.3277 100.353 32.3277C99.206 32.3277 98.1795 32.0983 97.273 31.6396C96.3666 31.181 95.6512 30.553 95.127 29.7558C94.6028 28.9585 94.3407 28.0521 94.3407 27.0364C94.3407 26.0972 94.5155 25.2672 94.8649 24.5464C95.2144 23.8256 95.7332 23.2195 96.4212 22.7281C97.1092 22.2257 97.961 21.8489 98.9767 21.5977C100.003 21.3356 101.177 21.2046 102.499 21.2046H105.415ZM120.338 28.9203C120.95 28.9203 121.496 28.8002 121.976 28.5599C122.457 28.3196 122.839 27.9811 123.123 27.5442C123.418 27.1074 123.576 26.5996 123.598 26.0208H127.677C127.655 27.2221 127.317 28.2978 126.662 29.2479C126.006 30.1981 125.133 30.9516 124.04 31.5086C122.959 32.0546 121.747 32.3277 120.404 32.3277C119.039 32.3277 117.848 32.0983 116.833 31.6396C115.817 31.181 114.971 30.5421 114.293 29.723C113.627 28.9039 113.125 27.9538 112.786 26.8726C112.459 25.7914 112.295 24.6338 112.295 23.3997V22.8755C112.295 21.6414 112.459 20.4838 112.786 19.4026C113.125 18.3214 113.627 17.3713 114.293 16.5522C114.971 15.7331 115.817 15.0943 116.833 14.6356C117.848 14.1769 119.033 13.9476 120.387 13.9476C121.818 13.9476 123.074 14.226 124.155 14.783C125.247 15.34 126.099 16.1263 126.711 17.142C127.333 18.1576 127.655 19.3535 127.677 20.7295H123.598C123.576 20.0961 123.434 19.5282 123.172 19.0258C122.91 18.5235 122.539 18.1194 122.058 17.8136C121.578 17.5078 120.994 17.3549 120.305 17.3549C119.574 17.3549 118.962 17.5078 118.471 17.8136C117.99 18.1194 117.613 18.5398 117.34 19.075C117.078 19.5992 116.893 20.1889 116.783 20.8442C116.685 21.4885 116.636 22.1656 116.636 22.8755V23.3997C116.636 24.1205 116.685 24.8085 116.783 25.4638C116.893 26.1191 117.078 26.7088 117.34 27.233C117.613 27.7463 117.99 28.1558 118.471 28.4616C118.962 28.7674 119.585 28.9203 120.338 28.9203ZM146.025 28.4616V32H134.033V28.4616H146.025ZM135.393 8.14848V32H130.888V8.14848H135.393ZM153.298 14.2752V32H148.957V14.2752H153.298ZM148.662 9.6392C148.662 8.99486 148.88 8.45973 149.317 8.03381C149.765 7.60789 150.366 7.39493 151.119 7.39493C151.873 7.39493 152.468 7.60789 152.905 8.03381C153.353 8.45973 153.576 8.99486 153.576 9.6392C153.576 10.2726 153.353 10.8023 152.905 11.2282C152.468 11.6541 151.873 11.8671 151.119 11.8671C150.366 11.8671 149.765 11.6541 149.317 11.2282C148.88 10.8023 148.662 10.2726 148.662 9.6392ZM161.669 18.0593V32H157.344V14.2752H161.407L161.669 18.0593ZM160.981 22.4987H159.703C159.714 21.21 159.889 20.0415 160.227 18.9931C160.566 17.9447 161.041 17.0437 161.653 16.2901C162.275 15.5366 163.012 14.9577 163.864 14.5537C164.716 14.1496 165.666 13.9476 166.714 13.9476C167.566 13.9476 168.336 14.0677 169.024 14.3079C169.712 14.5482 170.302 14.9304 170.793 15.4547C171.296 15.9789 171.678 16.6669 171.94 17.5187C172.213 18.3597 172.35 19.3972 172.35 20.6312V32H167.992V20.5985C167.992 19.7903 167.872 19.1514 167.632 18.6818C167.402 18.2122 167.064 17.8791 166.616 17.6825C166.179 17.486 165.639 17.3877 164.994 17.3877C164.328 17.3877 163.744 17.5242 163.242 17.7972C162.75 18.0593 162.335 18.4252 161.997 18.8948C161.669 19.3644 161.418 19.905 161.243 20.5166C161.068 21.1281 160.981 21.7889 160.981 22.4987ZM180.491 6.82157V32H176.167V6.82157H180.491ZM191.598 14.2752L183.882 22.941L179.705 27.1839L178.329 23.8256L181.556 19.763L186.372 14.2752H191.598ZM187.175 32L181.687 23.7437L184.57 20.9425L192.188 32H187.175ZM203.638 27.1511C203.638 26.7798 203.54 26.4467 203.344 26.1518C203.147 25.8569 202.776 25.5894 202.23 25.3491C201.695 25.0979 200.908 24.8631 199.871 24.6447C198.953 24.4481 198.107 24.2024 197.332 23.9075C196.556 23.6127 195.89 23.2577 195.333 22.8427C194.776 22.4168 194.339 21.9199 194.023 21.352C193.717 20.7732 193.564 20.107 193.564 19.3535C193.564 18.6218 193.722 17.9337 194.039 17.2894C194.356 16.6341 194.814 16.0608 195.415 15.5693C196.016 15.067 196.747 14.6738 197.61 14.3899C198.473 14.095 199.445 13.9476 200.526 13.9476C202.033 13.9476 203.327 14.1933 204.408 14.6847C205.501 15.1762 206.336 15.8533 206.915 16.716C207.494 17.5679 207.783 18.5289 207.783 19.5992H203.458C203.458 19.1296 203.349 18.7037 203.131 18.3214C202.923 17.9392 202.601 17.6334 202.164 17.4041C201.727 17.1638 201.176 17.0437 200.51 17.0437C199.909 17.0437 199.401 17.142 198.986 17.3385C198.582 17.5351 198.276 17.7918 198.069 18.1085C197.861 18.4252 197.758 18.7747 197.758 19.1569C197.758 19.4408 197.812 19.6975 197.921 19.9268C198.041 20.1452 198.233 20.3473 198.495 20.5329C198.757 20.7186 199.112 20.8879 199.559 21.0408C200.018 21.1937 200.581 21.3411 201.247 21.4831C202.568 21.7452 203.72 22.0946 204.703 22.5315C205.697 22.9574 206.473 23.5253 207.029 24.2352C207.586 24.945 207.865 25.8515 207.865 26.9545C207.865 27.7408 207.696 28.4616 207.357 29.1169C207.019 29.7612 206.527 30.3237 205.883 30.8042C205.238 31.2847 204.468 31.6615 203.573 31.9345C202.677 32.1966 201.667 32.3277 200.542 32.3277C198.915 32.3277 197.539 32.0383 196.414 31.4594C195.289 30.8697 194.438 30.1271 193.859 29.2315C193.28 28.3251 192.99 27.3859 192.99 26.4139H197.135C197.168 27.1019 197.353 27.6535 197.692 28.0685C198.031 28.4835 198.456 28.7838 198.97 28.9694C199.494 29.1442 200.045 29.2315 200.624 29.2315C201.28 29.2315 201.831 29.1442 202.279 28.9694C202.727 28.7838 203.065 28.5381 203.294 28.2323C203.524 27.9156 203.638 27.5552 203.638 27.1511Z" fill="white"/>
<defs>
<clipPath id="clip0_477_600">
<rect width="40.2593" height="40" fill="white"/>
</clipPath>
<clipPath id="clip1_477_600">
<rect width="18.3211" height="14.5312" fill="white" transform="translate(11.165 10.9375)"/>
</clipPath>
</defs>
</svg>
