<svg width="112" height="22" viewBox="0 0 112 22" fill="none" xmlns="http://www.w3.org/2000/svg">
<g clip-path="url(#clip0_478_617)">
<path d="M19.3534 2.68641C17.0719 0.694358 13.6558 1.01609 11.5417 3.2549L10.7174 4.13783L9.89223 3.2549C8.18838 1.45005 4.74299 0.373059 2.08297 2.68641C-0.549009 4.97792 -0.682972 9.10339 1.66642 11.5881L9.7545 20.1432C10.0178 20.4217 10.3737 20.5631 10.7128 20.5631C11.0581 20.5631 11.3964 20.4238 11.658 20.1453L19.7629 11.5859C22.1248 9.10339 21.9825 4.97792 19.3534 2.68641ZM18.8092 10.6328L10.7337 19.1965L2.62719 10.6328C1.02088 8.9406 0.685972 5.70619 2.95164 3.73085C5.24535 1.72251 7.94557 3.1795 8.92937 4.22351L10.719 6.11403L12.5087 4.22351C13.477 3.19535 16.1982 1.73879 18.4869 3.73085C20.7433 5.70191 20.4126 8.93632 18.8092 10.6328Z" fill="#016FB9"/>
<g clip-path="url(#clip1_478_617)">
<path d="M9.82169 12.2959L9.13813 12.9942C8.5198 13.6251 7.51344 13.6251 6.89618 12.9942C6.2783 12.3629 6.2783 11.3352 6.89618 10.7049L8.84703 8.7128C9.46536 8.08188 10.4717 8.08188 11.089 8.7128C11.6439 9.27976 11.7073 10.1894 11.2367 10.8154C11.1557 10.9253 11.1773 11.0815 11.285 11.164C11.3924 11.2466 11.5456 11.2248 11.6264 11.1146C12.2423 10.2784 12.1597 9.08827 11.4339 8.34748C10.6255 7.52202 9.31083 7.52249 8.50153 8.34748L6.55051 10.352C5.74228 11.1775 5.74228 12.52 6.55051 13.3464C6.9547 13.7591 7.48722 13.9637 8.01822 13.9637C8.54922 13.9637 9.07854 13.7588 9.48273 13.3464L10.1663 12.648C10.2616 12.5507 10.2616 12.3931 10.1663 12.2959C10.0716 12.1994 9.91618 12.1994 9.82169 12.2959ZM15.092 6.61648C14.2837 5.79102 12.969 5.79149 12.1597 6.61648L11.4761 7.31478C11.3808 7.41205 11.3808 7.56971 11.4761 7.66697C11.5714 7.76424 11.7258 7.76424 11.821 7.66697L12.5046 6.96867C13.1229 6.33774 14.1293 6.33774 14.7465 6.96867C15.3644 7.5999 15.3644 8.62767 14.7465 9.25797L12.7957 11.25C12.1773 11.8809 11.171 11.8809 10.5537 11.25C9.99849 10.6835 9.936 9.77466 10.4069 9.13502C10.4879 9.02509 10.4663 8.8689 10.3586 8.78641C10.25 8.70393 10.0976 8.72572 10.0168 8.83622C9.40104 9.67194 9.48334 10.8625 10.2088 11.6033C10.613 12.016 11.144 12.2224 11.6748 12.2224C12.2057 12.2224 12.7367 12.0159 13.1409 11.6033L15.0917 9.61125C15.9013 8.78486 15.9013 7.44209 15.092 6.61648Z" fill="#016FB9"/>
</g>
</g>
<path d="M32.1655 17.5482H29.422L29.4395 15.661H32.1655C32.9052 15.661 33.5255 15.4979 34.0264 15.1717C34.5274 14.8397 34.906 14.365 35.1623 13.7476C35.4185 13.1244 35.5467 12.3788 35.5467 11.5109V10.8556C35.5467 10.1858 35.4739 9.5946 35.3283 9.08203C35.1826 8.56946 34.9671 8.13843 34.6817 7.78895C34.4021 7.43946 34.0556 7.17444 33.642 6.99388C33.2285 6.81331 32.7537 6.72303 32.2179 6.72303H29.3696V4.82709H32.2179C33.0683 4.82709 33.843 4.9698 34.5419 5.25521C35.2467 5.54062 35.8554 5.95126 36.368 6.48713C36.8864 7.01717 37.2824 7.65207 37.5562 8.3918C37.8358 9.13154 37.9756 9.95864 37.9756 10.8731V11.5109C37.9756 12.4196 37.8358 13.2467 37.5562 13.9922C37.2824 14.732 36.8864 15.3669 36.368 15.8969C35.8554 16.427 35.2438 16.8347 34.5332 17.1201C33.8226 17.4055 33.0333 17.5482 32.1655 17.5482ZM30.7675 4.82709V17.5482H28.3648V4.82709H30.7675ZM42.2917 8.09474V17.5482H39.9764V8.09474H42.2917ZM39.8191 5.62216C39.8191 5.2785 39.9356 4.99309 40.1686 4.76593C40.4074 4.53877 40.7277 4.42519 41.1297 4.42519C41.5316 4.42519 41.849 4.53877 42.082 4.76593C42.3208 4.99309 42.4402 5.2785 42.4402 5.62216C42.4402 5.95999 42.3208 6.24249 42.082 6.46965C41.849 6.69682 41.5316 6.8104 41.1297 6.8104C40.7277 6.8104 40.4074 6.69682 40.1686 6.46965C39.9356 6.24249 39.8191 5.95999 39.8191 5.62216ZM46.8 10.0256V17.5482H44.4934V8.09474H46.6777L46.8 10.0256ZM49.6745 8.03358L49.6395 10.1829C49.5114 10.1596 49.3658 10.1421 49.2027 10.1305C49.0454 10.1188 48.8969 10.113 48.7571 10.113C48.4018 10.113 48.0902 10.1625 47.8222 10.2615C47.5543 10.3547 47.33 10.4916 47.1495 10.6722C46.9747 10.8527 46.8408 11.0741 46.7476 11.3362C46.6544 11.5925 46.6019 11.8837 46.5903 12.2099L46.0923 12.1487C46.0923 11.5488 46.1534 10.9925 46.2758 10.48C46.3981 9.96738 46.5757 9.51888 46.8087 9.13445C47.0417 8.75002 47.3329 8.45296 47.6824 8.24327C48.0377 8.02776 48.4455 7.92 48.9056 7.92C49.0338 7.92 49.1706 7.93165 49.3163 7.95495C49.4677 7.97242 49.5871 7.99864 49.6745 8.03358ZM55.8516 15.5387V11.1789C55.8516 10.8586 55.7962 10.5819 55.6856 10.3489C55.5749 10.1159 55.406 9.93535 55.1788 9.8072C54.9516 9.67906 54.6633 9.61499 54.3138 9.61499C54.0051 9.61499 53.7343 9.66741 53.5013 9.77225C53.2741 9.8771 53.0994 10.0256 52.9771 10.2178C52.8548 10.4042 52.7936 10.6197 52.7936 10.8644H50.4783C50.4783 10.4741 50.5715 10.1043 50.7579 9.75478C50.9443 9.39947 51.2093 9.08494 51.5529 8.81118C51.9024 8.53159 52.3189 8.31317 52.8023 8.1559C53.2916 7.99864 53.8391 7.92 54.4449 7.92C55.1613 7.92 55.7991 8.04232 56.3583 8.28696C56.9233 8.52577 57.366 8.8869 57.6863 9.37035C58.0125 9.8538 58.1756 10.4625 58.1756 11.1964V15.3203C58.1756 15.7921 58.2047 16.1969 58.263 16.5347C58.3271 16.8667 58.4202 17.1551 58.5426 17.3997V17.5482H56.1923C56.0816 17.3094 55.9972 17.0065 55.9389 16.6396C55.8807 16.2668 55.8516 15.8998 55.8516 15.5387ZM56.1748 11.7905L56.1923 13.1622H54.7332C54.3721 13.1622 54.0546 13.2001 53.7809 13.2758C53.5071 13.3457 53.2829 13.4505 53.1081 13.5903C52.9334 13.7243 52.8023 13.8874 52.715 14.0796C52.6276 14.266 52.5839 14.4786 52.5839 14.7174C52.5839 14.9504 52.6363 15.1601 52.7412 15.3465C52.8518 15.5329 53.0091 15.6814 53.213 15.7921C53.4227 15.8969 53.6673 15.9493 53.9469 15.9493C54.3546 15.9493 54.7099 15.8678 55.0128 15.7047C55.3157 15.5358 55.5516 15.3319 55.7205 15.0931C55.8894 14.8543 55.9797 14.6271 55.9914 14.4116L56.6554 15.4076C56.5738 15.6465 56.4515 15.8998 56.2884 16.1678C56.1253 16.4357 55.9156 16.6862 55.6593 16.9192C55.4031 17.1521 55.0944 17.3444 54.7332 17.4958C54.3721 17.6472 53.9527 17.723 53.4751 17.723C52.8635 17.723 52.316 17.6006 51.8325 17.356C51.3491 17.1114 50.9676 16.7764 50.688 16.3512C50.4084 15.926 50.2686 15.4426 50.2686 14.9009C50.2686 14.4 50.3618 13.9573 50.5482 13.5729C50.7346 13.1884 51.0112 12.8652 51.3782 12.6031C51.7452 12.3351 52.1995 12.1342 52.7412 12.0002C53.2887 11.8604 53.9149 11.7905 54.6196 11.7905H56.1748ZM64.1343 15.9057C64.4605 15.9057 64.7517 15.8416 65.008 15.7134C65.2643 15.5853 65.4681 15.4047 65.6196 15.1717C65.7768 14.9388 65.8613 14.6679 65.8729 14.3592H68.0485C68.0368 14.9999 67.8563 15.5736 67.5068 16.0804C67.1573 16.5871 66.6913 16.989 66.1088 17.2861C65.5322 17.5773 64.8857 17.723 64.1692 17.723C63.4411 17.723 62.8062 17.6006 62.2645 17.356C61.7229 17.1114 61.2714 16.7706 60.9103 16.3338C60.555 15.8969 60.2871 15.3902 60.1065 14.8135C59.9318 14.2369 59.8444 13.6195 59.8444 12.9613V12.6817C59.8444 12.0235 59.9318 11.4061 60.1065 10.8294C60.2871 10.2528 60.555 9.74604 60.9103 9.30919C61.2714 8.87234 61.7229 8.53159 62.2645 8.28696C62.8062 8.04232 63.4382 7.92 64.1605 7.92C64.9235 7.92 65.5934 8.06853 66.17 8.36559C66.7525 8.66265 67.2068 9.08203 67.533 9.62372C67.865 10.1654 68.0368 10.8032 68.0485 11.5371H65.8729C65.8613 11.1993 65.7856 10.8964 65.6458 10.6285C65.506 10.3605 65.3079 10.145 65.0517 9.98194C64.7954 9.81885 64.4838 9.73731 64.1168 9.73731C63.7265 9.73731 63.4004 9.81885 63.1383 9.98194C62.882 10.145 62.681 10.3693 62.5354 10.6547C62.3956 10.9343 62.2966 11.2488 62.2383 11.5983C62.1859 11.942 62.1597 12.3031 62.1597 12.6817V12.9613C62.1597 13.3457 62.1859 13.7127 62.2383 14.0621C62.2966 14.4116 62.3956 14.7262 62.5354 15.0057C62.681 15.2795 62.882 15.4979 63.1383 15.661C63.4004 15.8241 63.7324 15.9057 64.1343 15.9057ZM77.8339 15.661V17.5482H71.4384V15.661H77.8339ZM72.1636 4.82709V17.5482H69.7609V4.82709H72.1636ZM81.7132 8.09474V17.5482H79.3979V8.09474H81.7132ZM79.2406 5.62216C79.2406 5.2785 79.3571 4.99309 79.5901 4.76593C79.8289 4.53877 80.1493 4.42519 80.5512 4.42519C80.9531 4.42519 81.2705 4.53877 81.5035 4.76593C81.7423 4.99309 81.8617 5.2785 81.8617 5.62216C81.8617 5.95999 81.7423 6.24249 81.5035 6.46965C81.2705 6.69682 80.9531 6.8104 80.5512 6.8104C80.1493 6.8104 79.8289 6.69682 79.5901 6.46965C79.3571 6.24249 79.2406 5.95999 79.2406 5.62216ZM86.1778 10.113V17.5482H83.8712V8.09474H86.038L86.1778 10.113ZM85.8109 12.4807H85.1294C85.1352 11.7934 85.2284 11.1702 85.409 10.611C85.5895 10.0518 85.8429 9.5713 86.1691 9.1694C86.5011 8.76749 86.8943 8.45879 87.3486 8.24327C87.8029 8.02776 88.3097 7.92 88.8688 7.92C89.3232 7.92 89.7338 7.98407 90.1007 8.11222C90.4677 8.24036 90.7822 8.44422 91.0443 8.72381C91.3123 9.00339 91.5161 9.37035 91.6559 9.82468C91.8016 10.2732 91.8744 10.8265 91.8744 11.4847V17.5482H89.5503V11.4672C89.5503 11.0362 89.4862 10.6955 89.3581 10.445C89.2358 10.1945 89.0552 10.0169 88.8164 9.91205C88.5834 9.8072 88.2951 9.75478 87.9514 9.75478C87.5961 9.75478 87.2845 9.82759 87.0166 9.97321C86.7545 10.113 86.5331 10.3081 86.3526 10.5586C86.1778 10.809 86.0438 11.0974 85.9507 11.4236C85.8575 11.7497 85.8109 12.1021 85.8109 12.4807ZM96.2167 4.11939V17.5482H93.9101V4.11939H96.2167ZM102.14 8.09474L98.0252 12.7166L95.7973 14.9795L95.0634 13.1884L96.7846 11.0217L99.3533 8.09474H102.14ZM99.7814 17.5482L96.8545 13.1448L98.3922 11.6507L102.455 17.5482H99.7814ZM108.562 14.9621C108.562 14.764 108.51 14.5864 108.405 14.4291C108.3 14.2718 108.102 14.1291 107.811 14.001C107.525 13.867 107.106 13.7418 106.553 13.6253C106.063 13.5204 105.612 13.3894 105.198 13.2321C104.785 13.0749 104.429 12.8856 104.132 12.6642C103.835 12.4371 103.602 12.172 103.433 11.8691C103.27 11.5604 103.189 11.2051 103.189 10.8032C103.189 10.413 103.273 10.046 103.442 9.70236C103.611 9.35288 103.856 9.04708 104.176 8.78497C104.496 8.51703 104.887 8.30734 105.347 8.1559C105.807 7.99864 106.325 7.92 106.902 7.92C107.706 7.92 108.396 8.05106 108.973 8.31317C109.555 8.57528 110.001 8.93641 110.31 9.39656C110.618 9.85089 110.773 10.3635 110.773 10.9343H108.466C108.466 10.6838 108.408 10.4567 108.291 10.2528C108.181 10.0489 108.009 9.88584 107.776 9.76352C107.543 9.63537 107.249 9.5713 106.893 9.5713C106.573 9.5713 106.302 9.62372 106.081 9.72857C105.865 9.83341 105.702 9.97029 105.592 10.1392C105.481 10.3081 105.426 10.4945 105.426 10.6984C105.426 10.8498 105.455 10.9867 105.513 11.109C105.577 11.2255 105.679 11.3333 105.819 11.4323C105.958 11.5313 106.148 11.6216 106.387 11.7031C106.631 11.7847 106.931 11.8633 107.287 11.939C107.991 12.0788 108.606 12.2652 109.13 12.4982C109.66 12.7254 110.074 13.0283 110.371 13.4069C110.668 13.7855 110.816 14.2689 110.816 14.8572C110.816 15.2766 110.726 15.661 110.545 16.0105C110.365 16.3542 110.103 16.6541 109.759 16.9104C109.415 17.1667 109.005 17.3677 108.527 17.5133C108.05 17.6531 107.511 17.723 106.911 17.723C106.043 17.723 105.309 17.5686 104.709 17.2599C104.109 16.9454 103.655 16.5493 103.346 16.0717C103.037 15.5882 102.883 15.0873 102.883 14.5689H105.094C105.111 14.9358 105.21 15.23 105.391 15.4513C105.571 15.6727 105.798 15.8328 106.072 15.9319C106.352 16.0251 106.646 16.0717 106.954 16.0717C107.304 16.0717 107.598 16.0251 107.837 15.9319C108.076 15.8328 108.256 15.7018 108.379 15.5387C108.501 15.3698 108.562 15.1776 108.562 14.9621Z" fill="#016FB9"/>
<defs>
<clipPath id="clip0_478_617">
<rect width="21.4342" height="21.934" fill="white"/>
</clipPath>
<clipPath id="clip1_478_617">
<rect width="9.75426" height="7.96821" fill="white" transform="translate(5.94434 5.99756)"/>
</clipPath>
</defs>
</svg>
