<svg width="164" height="23" viewBox="0 0 164 23" fill="none" xmlns="http://www.w3.org/2000/svg">
<path d="M0.475586 22V0.671875H6.49609C8.35156 0.671875 9.99219 1.08203 11.418 1.90234C12.8438 2.72266 13.9424 3.88965 14.7139 5.40332C15.4951 6.91699 15.8906 8.65527 15.9004 10.6182V11.9805C15.9004 13.9922 15.5098 15.7549 14.7285 17.2686C13.957 18.7822 12.8486 19.9443 11.4033 20.7549C9.96777 21.5654 8.29297 21.9805 6.37891 22H0.475586ZM3.28809 2.98633V19.7002H6.24707C8.41504 19.7002 10.0996 19.0264 11.3008 17.6787C12.5117 16.3311 13.1172 14.4121 13.1172 11.9219V10.6768C13.1172 8.25488 12.5459 6.375 11.4033 5.03711C10.2705 3.68945 8.65918 3.00586 6.56934 2.98633H3.28809ZM23.1807 22H20.3682V0.671875H23.1807V22ZM36.1592 13.3721H31.1494V22H28.3223V0.671875H35.3828C37.7852 0.671875 39.6309 1.21875 40.9199 2.3125C42.2188 3.40625 42.8682 4.99805 42.8682 7.08789C42.8682 8.41602 42.5068 9.57324 41.7842 10.5596C41.0713 11.5459 40.0752 12.2832 38.7959 12.7715L43.8057 21.8242V22H40.7881L36.1592 13.3721ZM31.1494 11.0723H35.4707C36.8672 11.0723 37.9756 10.7109 38.7959 9.98828C39.626 9.26562 40.041 8.29883 40.041 7.08789C40.041 5.76953 39.6455 4.75879 38.8545 4.05566C38.0732 3.35254 36.9404 2.99609 35.4561 2.98633H31.1494V11.0723ZM58.6006 16.4336H49.665L47.6582 22H44.7578L52.9023 0.671875H55.3633L63.5225 22H60.6367L58.6006 16.4336ZM50.5146 14.1191H57.7656L54.1328 4.14355L50.5146 14.1191ZM81.9062 15.2324C81.6426 17.4883 80.8076 19.2314 79.4014 20.4619C78.0049 21.6826 76.1445 22.293 73.8203 22.293C71.3008 22.293 69.2793 21.3896 67.7559 19.583C66.2422 17.7764 65.4854 15.3594 65.4854 12.332V10.2812C65.4854 8.29883 65.8369 6.55566 66.54 5.05176C67.2529 3.54785 68.2588 2.39551 69.5576 1.59473C70.8564 0.78418 72.3604 0.378906 74.0693 0.378906C76.335 0.378906 78.1514 1.01367 79.5186 2.2832C80.8857 3.54297 81.6816 5.29102 81.9062 7.52734H79.0791C78.835 5.82812 78.3027 4.59766 77.4824 3.83594C76.6719 3.07422 75.5342 2.69336 74.0693 2.69336C72.2725 2.69336 70.8613 3.35742 69.8359 4.68555C68.8203 6.01367 68.3125 7.90332 68.3125 10.3545V12.4199C68.3125 14.7344 68.7959 16.5752 69.7627 17.9424C70.7295 19.3096 72.082 19.9932 73.8203 19.9932C75.3828 19.9932 76.5791 19.6416 77.4092 18.9385C78.249 18.2256 78.8057 16.9902 79.0791 15.2324H81.9062Z" fill="#016FB9"/>
<path d="M87.3115 19.7002H97.126L96.7158 22H84.1475L87.8535 0.671875H90.6221L87.3115 19.7002ZM102.912 22H100.173L103.879 0.671875H106.618L102.912 22ZM123.947 22H121.281L113.664 5.44727L110.793 22H108.024L111.73 0.671875H114.396L122.028 17.2979L124.914 0.671875H127.653L123.947 22ZM136.018 12.1123L132.897 14.9102L131.667 22H128.913L132.619 0.671875H135.373L133.557 11.0576L144.426 0.671875H147.971L138.054 10.2227L144.689 22H141.628L136.018 12.1123ZM159.294 16.5068C159.509 14.9443 158.698 13.8018 156.862 13.0791L154.328 12.1562L153.479 11.79C150.627 10.4912 149.294 8.66504 149.479 6.31152C149.577 5.12988 149.982 4.08496 150.695 3.17676C151.408 2.26855 152.351 1.57031 153.522 1.08203C154.704 0.583984 155.959 0.349609 157.287 0.378906C158.576 0.408203 159.724 0.696289 160.729 1.24316C161.745 1.79004 162.517 2.55664 163.044 3.54297C163.571 4.51953 163.806 5.62305 163.747 6.85352L160.979 6.83887C161.076 5.53027 160.783 4.51953 160.1 3.80664C159.416 3.08398 158.439 2.71289 157.17 2.69336C155.832 2.67383 154.714 2.98633 153.815 3.63086C152.917 4.27539 152.399 5.1543 152.263 6.26758C152.067 7.72266 152.961 8.82617 154.943 9.57812L157.126 10.3545L158.225 10.8232C160.979 12.0928 162.253 13.9775 162.048 16.4775C161.94 17.6787 161.535 18.7188 160.832 19.5977C160.129 20.4668 159.172 21.1406 157.961 21.6191C156.76 22.0977 155.466 22.3223 154.079 22.293C152.741 22.2832 151.516 22 150.402 21.4434C149.299 20.877 148.459 20.1055 147.883 19.1289C147.307 18.1523 147.053 17.0439 147.121 15.8037L149.875 15.8184C149.787 17.0879 150.129 18.0986 150.9 18.8506C151.682 19.5928 152.78 19.9736 154.196 19.9932C155.612 20.0127 156.779 19.7051 157.697 19.0703C158.615 18.4355 159.147 17.5811 159.294 16.5068Z" fill="#E79532"/>
</svg>
