<svg width="156" height="138" viewBox="0 0 156 138" fill="none" xmlns="http://www.w3.org/2000/svg">
<path d="M43.3009 47.389H60.6342V64.639C60.6342 65.7828 61.0908 66.8797 61.9034 67.6884C62.7161 68.4972 63.8183 68.9515 64.9676 68.9515H82.3009C83.4502 68.9515 84.5523 68.4972 85.365 67.6884C86.1777 66.8797 86.6342 65.7828 86.6342 64.639V47.389H103.968C105.117 47.389 106.219 46.9347 107.032 46.1259C107.844 45.3172 108.301 44.2203 108.301 43.0765V25.8265C108.301 24.6828 107.844 23.5859 107.032 22.7771C106.219 21.9684 105.117 21.514 103.968 21.514H86.6342V4.26404C86.6342 3.12029 86.1777 2.02339 85.365 1.21464C84.5523 0.405889 83.4502 -0.0484619 82.3009 -0.0484619H64.9676C63.8183 -0.0484619 62.7161 0.405889 61.9034 1.21464C61.0908 2.02339 60.6342 3.12029 60.6342 4.26404V21.514H43.3009C42.1516 21.514 41.0494 21.9684 40.2368 22.7771C39.4241 23.5859 38.9676 24.6828 38.9676 25.8265V43.0765C38.9676 44.2203 39.4241 45.3172 40.2368 46.1259C41.0494 46.9347 42.1516 47.389 43.3009 47.389ZM153.852 90.5976C153.01 89.4553 151.95 88.4897 150.732 87.7563C149.514 87.0229 148.163 86.5362 146.755 86.3241C145.348 86.112 143.912 86.1786 142.53 86.5202C141.149 86.8618 139.849 87.4716 138.705 88.3147L106.294 112.082H73.6288C72.4795 112.082 71.3773 111.628 70.5647 110.819C69.752 110.01 69.2955 108.913 69.2955 107.769C69.2955 106.626 69.752 105.529 70.5647 104.72C71.3773 103.911 72.4795 103.457 73.6288 103.457H94.8188C99.1521 103.457 103.147 100.527 103.857 96.2847C104.066 95.0459 104.002 93.7765 103.668 92.5651C103.334 91.3536 102.738 90.2291 101.923 89.2701C101.108 88.311 100.092 87.5403 98.9473 87.0117C97.8022 86.4832 96.555 86.2094 95.2928 86.2096H51.9594C44.6509 86.2081 37.5638 88.706 31.8853 93.2848L19.2915 103.457H4.29818C3.15132 103.465 2.05364 103.922 1.24267 104.729C0.4317 105.536 -0.0273518 106.628 -0.0351562 107.769V133.644C-0.0273518 134.786 0.4317 135.878 1.24267 136.685C2.05364 137.492 3.15132 137.949 4.29818 137.957H98.2773C104.288 137.943 110.139 136.03 114.988 132.494L151.558 105.656C153.867 103.96 155.404 101.422 155.834 98.599C156.265 95.7759 155.552 92.8983 153.852 90.5976Z" fill="#08415C"/>
</svg>
