<svg width="145" height="127" viewBox="0 0 145 127" fill="none" xmlns="http://www.w3.org/2000/svg">
<path d="M90.6816 60.045L76.6064 88.1954C74.9072 91.6221 69.9795 91.5089 68.4219 88.0255L52.3076 52.2569L43.8115 72.5626H17.1621L68.8467 125.38C70.8574 127.447 74.1142 127.447 76.125 125.38L127.838 72.5626H96.9404L90.6816 60.045ZM134.153 11.9288L133.474 11.2208C118.889 -3.67572 95.0146 -3.67572 80.4013 11.2208L72.5 19.3204L64.5986 11.2491C50.0137 -3.67572 26.1113 -3.67572 11.5264 11.2491L10.8467 11.9288C-2.94531 26.0323 -3.54004 48.4903 8.77929 63.5001H37.7793L47.9463 39.088C49.4756 35.4346 54.6299 35.3497 56.2724 38.9747L72.7549 75.5928L86.6318 47.8672C88.3027 44.5255 93.0605 44.5255 94.7314 47.8672L102.548 63.5001H136.221C148.54 48.4903 147.945 26.0323 134.153 11.9288Z" fill="#08415C"/>
</svg>
