<svg width="142" height="162" viewBox="0 0 142 162" fill="none" xmlns="http://www.w3.org/2000/svg">
<path d="M71 81C93.4094 81 111.571 62.8699 111.571 40.5C111.571 18.1301 93.4094 0 71 0C48.5906 0 30.4286 18.1301 30.4286 40.5C30.4286 62.8699 48.5906 81 71 81ZM32.9643 134.156C32.9643 138.364 36.3558 141.75 40.5714 141.75C44.7871 141.75 48.1786 138.364 48.1786 134.156C48.1786 129.948 44.7871 126.562 40.5714 126.562C36.3558 126.562 32.9643 129.948 32.9643 134.156ZM101.429 91.3148V106.819C112.998 109.16 121.714 119.412 121.714 131.625V144.819C121.714 147.224 120.003 149.312 117.625 149.787L107.419 151.812C106.056 152.096 104.725 151.211 104.44 149.818L103.457 144.851C103.172 143.49 104.059 142.13 105.454 141.877L111.571 140.643V131.625C111.571 111.755 81.1429 111.027 81.1429 132.226V140.674L87.2603 141.908C88.6232 142.193 89.5107 143.522 89.2571 144.882L88.2746 149.85C87.9893 151.211 86.658 152.096 85.2951 151.843L75.4058 150.514C72.9018 150.166 71.0317 148.046 71.0317 145.484V131.625C71.0317 119.412 79.7482 109.192 91.3174 106.819V92.5172C90.6201 92.7387 89.9228 92.8652 89.2254 93.1184C83.5201 95.1117 77.4027 96.2191 71.0317 96.2191C64.6607 96.2191 58.5433 95.1117 52.8379 93.1184C50.4924 92.2957 48.1152 91.7895 45.6746 91.473V117.292C52.9964 119.475 58.3531 126.183 58.3531 134.188C58.3531 143.965 50.3973 151.907 40.6031 151.907C30.8089 151.907 22.8531 143.965 22.8531 134.188C22.8531 126.183 28.2098 119.475 35.5317 117.292V91.8527C15.3728 95.2383 0 112.577 0 133.65V147.825C0 155.64 6.37098 162 14.2 162H127.8C135.629 162 142 155.64 142 147.825V133.65C142 110.869 123.996 92.4223 101.429 91.3148Z" fill="#08415C"/>
</svg>
